<svg width="112" height="44" viewBox="0 0 112 44" fill="none" xmlns="http://www.w3.org/2000/svg">
<path d="M0.00302604 41.3456V1.51994C-0.00948139 1.31761 0.0211195 1.11492 0.0928112 0.925309C0.164503 0.735693 0.275643 0.563467 0.418884 0.420024C0.562125 0.276581 0.734202 0.165193 0.923716 0.0932331C1.11323 0.0212735 1.31588 -0.00961719 1.51823 0.00260425H14.977C23.826 0.00260425 30.9197 2.36004 30.9197 10.6111C30.9094 13.0854 30.1015 15.4904 28.6159 17.4691C27.1007 19.4686 27.2207 20.3173 29.2824 21.9546C31.4641 23.712 32.9257 26.4402 32.9257 30.1971C32.9257 38.926 25.5298 42.8672 16.1943 42.8672H1.52464C1.32139 42.8804 1.11765 42.8502 0.927039 42.7784C0.736427 42.7066 0.563327 42.595 0.419303 42.4509C0.275278 42.3069 0.163656 42.1338 0.0918694 41.9432C0.0200828 41.7526 -0.0102109 41.5488 0.00302604 41.3456ZM11.218 16.9761H14.5527C18.9161 16.9761 20.9178 15.0966 20.9178 12.1884C20.9178 9.09588 18.8561 7.82286 14.5527 7.82286H11.218C11.0967 7.81533 10.9752 7.83368 10.8616 7.87669C10.7479 7.91969 10.6447 7.98637 10.5587 8.0723C10.4728 8.15823 10.4061 8.26144 10.3631 8.3751C10.3201 8.48876 10.3018 8.61026 10.3093 8.73154V16.0675C10.3018 16.1887 10.3201 16.3102 10.3631 16.4239C10.4061 16.5376 10.4728 16.6408 10.5587 16.7267C10.6447 16.8126 10.7479 16.8793 10.8616 16.9223C10.9752 16.9653 11.0967 16.9837 11.218 16.9761ZM11.218 34.9784H15.4014C20.3713 34.9784 22.9173 33.1589 22.9173 29.522C22.9173 26.0073 20.4313 24.6121 15.4014 24.6121H11.218C11.0967 24.6046 10.9752 24.6229 10.8616 24.6659C10.7479 24.7089 10.6447 24.7756 10.5587 24.8615C10.4728 24.9475 10.4061 25.0507 10.3631 25.1643C10.3201 25.278 10.3018 25.3995 10.3093 25.5208V34.0697C10.3018 34.191 10.3201 34.3125 10.3631 34.4261C10.4061 34.5398 10.4728 34.643 10.5587 34.7289C10.6447 34.8149 10.7479 34.8815 10.8616 34.9245C10.9752 34.9676 11.0967 34.9859 11.218 34.9784Z" fill="#5D9B0D"/>
<path d="M40.8589 26.494C40.8589 15.6434 48.557 9.27832 56.9323 9.27832C65.2391 9.27832 72.9372 15.6434 72.9372 26.494C72.9372 37.3447 65.2391 43.639 56.9323 43.639C48.557 43.6497 40.8589 37.3361 40.8589 26.494ZM62.438 26.494C62.438 21.0376 60.7406 17.5829 56.9216 17.5829C53.0425 17.5829 51.3495 21.0376 51.3495 26.494C51.3495 31.8883 53.0468 35.3451 56.9216 35.3451C60.7385 35.3451 62.438 31.8883 62.438 26.494Z" fill="#5D9B0D"/>
<path d="M80.8054 40.5502L89.05 26.6199C89.1982 26.3835 89.2767 26.1102 89.2767 25.8312C89.2767 25.5523 89.1982 25.2789 89.05 25.0426L81.4719 12.3746C80.6147 10.9794 81.1698 10.0707 82.745 10.0707H90.1409C90.4136 10.0683 90.6818 10.1402 90.9166 10.2788C91.1515 10.4174 91.3442 10.6173 91.4739 10.8572L93.7778 15.1628C94.635 16.9801 95.5373 18.9196 96.4459 20.7349H96.7438C97.4104 18.9154 98.199 16.9758 98.8655 15.1628L100.563 11.0908V10.9751C100.745 10.4286 101.352 10.0664 101.958 10.0664H108.93C110.445 10.0664 110.989 10.9751 110.203 12.3081L102.507 26.1913C102.382 26.4374 102.322 26.7113 102.333 26.9869C102.344 27.2626 102.425 27.5309 102.569 27.7665L110.631 40.5502C111.489 41.9454 110.993 42.854 109.358 42.854H101.9C101.637 42.8474 101.381 42.7709 101.158 42.6322C100.934 42.4936 100.752 42.2979 100.629 42.0654L98.0833 37.702C97.1125 35.8225 96.1416 33.8829 95.1129 32.0634H94.815C94.0264 33.8829 93.1777 35.7625 92.3911 37.702L90.5716 41.9454C90.445 42.2099 90.2481 42.4346 90.0024 42.5948C89.7567 42.7551 89.4718 42.8447 89.1786 42.854H82.1449C80.5633 42.8605 80.0275 41.9518 80.8054 40.5502Z" fill="#5D9B0D"/>
</svg>
