<svg width="66" height="43" viewBox="0 0 66 43" fill="none" xmlns="http://www.w3.org/2000/svg">
<path d="M0.00272712 41.3456V1.51994C-0.00978031 1.31761 0.0208336 1.11492 0.0925253 0.925309C0.164217 0.735693 0.275358 0.563467 0.418598 0.420024C0.561839 0.276581 0.733903 0.165193 0.923417 0.0932331C1.11293 0.0212735 1.31557 -0.00961718 1.51792 0.00260425H25.8274C26.0297 -0.00961718 26.2323 0.0212735 26.4219 0.0932331C26.6114 0.165193 26.7835 0.276581 26.9267 0.420024C27.0699 0.563467 27.1811 0.735693 27.2528 0.925309C27.3245 1.11492 27.3551 1.31761 27.3426 1.51994V7.03419C27.3551 7.23652 27.3245 7.4392 27.2528 7.62881C27.1811 7.81843 27.0699 7.99066 26.9267 8.1341C26.7835 8.27754 26.6114 8.38893 26.4219 8.46089C26.2323 8.53285 26.0297 8.56374 25.8274 8.55152H11.8349C11.6327 8.53898 11.4301 8.56958 11.2406 8.64129C11.051 8.713 10.8789 8.82418 10.7357 8.96746C10.5924 9.11074 10.4812 9.28284 10.4095 9.47236C10.3378 9.66187 10.3072 9.86447 10.3197 10.0667V16.4318C10.3075 16.6339 10.3384 16.8364 10.4102 17.0257C10.482 17.2151 10.5932 17.3871 10.7364 17.5303C10.8796 17.6735 11.0516 17.7847 11.241 17.8565C11.4303 17.9283 11.6328 17.9592 11.8349 17.947H23.4078C23.6099 17.9348 23.8124 17.9656 24.0017 18.0375C24.1911 18.1093 24.3631 18.2205 24.5063 18.3637C24.6495 18.5069 24.7607 18.6789 24.8325 18.8682C24.9043 19.0576 24.9351 19.26 24.923 19.4622V24.9786C24.9351 25.1807 24.9043 25.3832 24.8325 25.5725C24.7607 25.7619 24.6495 25.9338 24.5063 26.077C24.3631 26.2202 24.1911 26.3314 24.0017 26.4033C23.8124 26.4751 23.6099 26.5059 23.4078 26.4937H11.8349C11.6328 26.4816 11.4303 26.5124 11.241 26.5842C11.0516 26.6561 10.8796 26.7673 10.7364 26.9105C10.5932 27.0537 10.482 27.2256 10.4102 27.415C10.3384 27.6043 10.3075 27.8068 10.3197 28.0089V41.3456C10.3319 41.5479 10.3011 41.7506 10.2291 41.9401C10.1571 42.1296 10.0458 42.3017 9.90231 42.4449C9.75887 42.5882 9.58664 42.6993 9.39702 42.771C9.20741 42.8427 9.00472 42.8733 8.80239 42.8608H1.51792C1.31576 42.873 1.11332 42.8421 0.923967 42.7703C0.73461 42.6985 0.562654 42.5873 0.419448 42.4441C0.276243 42.3009 0.165052 42.1289 0.0932186 41.9395C0.0213856 41.7502 -0.00946412 41.5477 0.00272712 41.3456Z" fill="#5D9B0D"/>
<path d="M38.069 41.3456V1.51994C38.0568 1.3175 38.0877 1.11478 38.1597 0.925162C38.2316 0.735546 38.343 0.563351 38.4864 0.419947C38.6298 0.276543 38.8019 0.165194 38.9916 0.0932527C39.1812 0.0213113 39.3839 -0.00958505 39.5863 0.00260425H63.8936C64.096 -0.00961718 64.2986 0.0212735 64.4881 0.0932331C64.6776 0.165193 64.8497 0.276581 64.993 0.420024C65.1362 0.563467 65.2473 0.735693 65.319 0.925309C65.3907 1.11492 65.4213 1.31761 65.4088 1.51994V7.03419C65.4213 7.23652 65.3907 7.4392 65.319 7.62881C65.2473 7.81843 65.1362 7.99066 64.993 8.1341C64.8497 8.27754 64.6776 8.38893 64.4881 8.46089C64.2986 8.53285 64.096 8.56374 63.8936 8.55152H49.8905C49.6883 8.53933 49.4859 8.57017 49.2965 8.642C49.1072 8.71384 48.9352 8.82503 48.792 8.96823C48.6488 9.11144 48.5376 9.2834 48.4658 9.47275C48.3939 9.66211 48.3631 9.86455 48.3753 10.0667V16.4318C48.3631 16.6339 48.3939 16.8364 48.4658 17.0257C48.5376 17.2151 48.6488 17.3871 48.792 17.5303C48.9352 17.6735 49.1072 17.7847 49.2965 17.8565C49.4859 17.9283 49.6883 17.9592 49.8905 17.947H61.4633C61.6657 17.9345 61.8684 17.9651 62.058 18.0368C62.2476 18.1085 62.4198 18.2196 62.5632 18.3628C62.7067 18.5061 62.8181 18.6782 62.8901 18.8677C62.962 19.0572 62.9929 19.2598 62.9807 19.4622V24.9786C62.9929 25.1809 62.962 25.3835 62.8901 25.5731C62.8181 25.7626 62.7067 25.9346 62.5632 26.0779C62.4198 26.2211 62.2476 26.3323 62.058 26.404C61.8684 26.4757 61.6657 26.5063 61.4633 26.4937H49.8905C49.6883 26.4816 49.4859 26.5124 49.2965 26.5842C49.1072 26.6561 48.9352 26.7673 48.792 26.9105C48.6488 27.0537 48.5376 27.2256 48.4658 27.415C48.3939 27.6043 48.3631 27.8068 48.3753 28.0089V41.3456C48.3875 41.5477 48.3566 41.7502 48.2848 41.9395C48.213 42.1289 48.1018 42.3009 47.9586 42.4441C47.8154 42.5873 47.6434 42.6985 47.454 42.7703C47.2647 42.8421 47.0623 42.873 46.8601 42.8608H39.5863C39.384 42.8733 39.1813 42.8427 38.9917 42.771C38.8021 42.6993 38.6299 42.5882 38.4864 42.4449C38.343 42.3017 38.2316 42.1296 38.1596 41.9401C38.0877 41.7506 38.0568 41.5479 38.069 41.3456Z" fill="#5D9B0D"/>
</svg>
