<svg width="189" height="47" viewBox="0 0 189 47" fill="none" xmlns="http://www.w3.org/2000/svg">
<path d="M23.6228 1.00059C25.6231 1.00059 27.7662 1.74139 30.0522 3.22301C33.404 5.28183 38.4954 7.90858 45.3262 11.1033C45.6216 11.2841 45.8628 11.5411 46.0246 11.8473C46.1864 12.1535 46.2627 12.4976 46.2456 12.8435C46.2456 13.8436 46.0042 14.6651 45.5212 15.3081C45.2633 15.6204 44.9376 15.8697 44.5689 16.0372C44.2001 16.2047 43.798 16.2859 43.3931 16.2746C42.2344 16.2746 40.7842 15.9046 39.0426 15.1645C36.5373 14.0704 34.0998 12.8273 31.7431 11.4419C31.7103 12.0862 31.6138 12.5213 31.4538 12.747C31.1302 13.1757 30.5837 13.375 29.81 13.375H16.9041C16.3768 13.4046 15.858 13.2322 15.4532 12.8928C15.1639 12.6335 15.001 12.2155 14.971 11.6348C11.9707 13.5679 9.39249 15.0502 7.2365 16.0817C6.01064 16.6304 5.04337 16.9047 4.33471 16.9047C3.33458 16.9047 2.44877 16.4696 1.67724 15.5995C1.22433 14.9223 0.998578 14.0651 1.00001 13.0278C1.0643 12.3206 1.46721 11.7869 2.20873 11.4333C7.82974 8.71756 13.2998 5.69993 18.595 2.39362C20.1058 1.46373 21.849 0.980745 23.6228 1.00059ZM11.8356 15.3595H35.8622C38.9226 15.3595 40.4528 16.8904 40.4528 19.9522V29.4741C40.4545 29.6524 40.4387 29.8304 40.4056 30.0056C40.6185 29.9121 40.8482 29.8632 41.0807 29.862C41.4932 29.8472 41.9037 29.9265 42.281 30.094C42.6583 30.2614 42.9924 30.5127 43.2581 30.8286C43.741 31.3429 43.9825 32.1159 43.9825 33.1474C43.9825 33.7604 43.6439 34.3247 42.9667 34.8405C41.2445 36.158 39.3993 37.3063 37.4567 38.2695C39.4869 39.1067 41.8394 39.964 44.514 40.8412C44.9234 41.0792 45.2663 41.4163 45.5112 41.8215C45.7562 42.2267 45.8952 42.687 45.9156 43.1601C45.9156 44.1917 45.6098 44.9653 44.9983 45.4811C44.5783 46.0298 43.8368 46.3033 42.7738 46.3019C41.4522 46.3019 39.712 45.8997 37.5531 45.0953C32.9692 43.3735 28.6925 40.9247 24.8873 37.843C22.9482 36.3081 21.2955 34.4428 20.0052 32.333H13.7709V37.843C16.3812 37.5858 18.9594 37.2958 21.5054 36.9729C21.9012 36.9724 22.2922 37.0587 22.651 37.2257C23.0098 37.3927 23.3277 37.6363 23.5821 37.9395C24.0021 38.4567 24.2122 39.1817 24.2122 40.1147C24.2122 41.0163 23.97 41.7256 23.4857 42.2428C23.0685 42.6929 22.3598 42.9987 21.3597 43.1601C14.0731 44.1917 8.40093 44.7074 4.34329 44.7074C3.2803 44.7074 2.52305 44.4495 2.07157 43.9338C1.65294 43.4523 1.42721 42.695 1.39435 41.6621C1.39435 40.5991 1.66866 39.8261 2.2173 39.3432C2.53877 38.9546 3.1817 38.7446 4.14611 38.7131C5.17767 38.6174 6.1928 38.5367 7.19149 38.471V19.7551C7.18864 16.8233 8.73383 15.3574 11.8271 15.3574L11.8356 15.3595ZM13.7644 21.8853H33.7276V20.1451C33.7276 19.7579 33.389 19.5643 32.7118 19.5643H14.7782C14.1009 19.5643 13.7644 19.7572 13.7644 20.1451V21.8853ZM13.7644 27.541C13.7644 27.8968 14.1009 28.0725 14.7782 28.0725H32.7118C33.389 28.0725 33.7276 27.8968 33.7276 27.541V25.7494H13.7644V27.541ZM18.5972 9.32448H28.222C27.029 8.55295 25.8367 7.76357 24.6451 6.95633C24.1608 6.63486 23.8221 6.47413 23.6292 6.47413C23.1016 6.49164 22.5863 6.63885 22.1291 6.90275C20.8689 7.80143 19.6909 8.60439 18.595 9.31162L18.5972 9.32448ZM31.3595 35.4706C33.3667 34.5283 35.3053 33.4462 37.1609 32.2323C36.5989 32.2974 36.0336 32.3296 35.4679 32.3288H27.2983C28.3436 33.3973 29.5119 34.3383 30.7787 35.132C30.9648 35.2523 31.158 35.361 31.3574 35.4577L31.3595 35.4706Z" fill="#5D9B0D" stroke="#5D9B0D" stroke-width="0.458628" stroke-linecap="round" stroke-linejoin="round"/>
<path d="M94.9027 1.00068C96.9029 1.00068 99.046 1.74149 101.332 3.2231C104.684 5.28764 109.776 7.91439 116.608 11.1034C116.904 11.2842 117.145 11.5412 117.307 11.8474C117.468 12.1536 117.545 12.4977 117.528 12.8436C117.528 13.8437 117.285 14.6652 116.801 15.3082C116.544 15.6204 116.218 15.8698 115.85 16.0373C115.481 16.2048 115.08 16.286 114.675 16.2747C113.515 16.2747 112.065 15.9047 110.325 15.1646C107.816 14.0708 105.376 12.8277 103.017 11.442C102.985 12.0863 102.889 12.5214 102.727 12.7471C102.404 13.1758 101.857 13.3751 101.083 13.3751H88.1754C87.6487 13.4044 87.1307 13.2319 86.7266 12.8929C86.4352 12.6336 86.2744 12.2156 86.2423 11.6349C83.2419 13.568 80.6638 15.0503 78.5078 16.0818C77.2833 16.6305 76.3168 16.9048 75.6081 16.9048C74.608 16.9048 73.7215 16.4697 72.9485 15.5996C72.4984 14.9224 72.2734 14.0652 72.2734 13.0279C72.3377 12.3207 72.7385 11.787 73.48 11.4334C79.1017 8.71764 84.5725 5.70001 89.8685 2.39371C91.3809 1.46232 93.1266 0.979269 94.9027 1.00068ZM83.1155 15.3596H107.14C110.202 15.3596 111.733 16.8905 111.733 19.9523V29.4742C111.734 29.6526 111.717 29.8306 111.683 30.0057C111.897 29.9123 112.127 29.8634 112.361 29.8621C112.773 29.8473 113.183 29.9266 113.56 30.0941C113.937 30.2616 114.271 30.5128 114.536 30.8287C115.02 31.343 115.262 32.116 115.262 33.1475C115.262 33.7605 114.924 34.3248 114.247 34.8406C112.524 36.1581 110.679 37.3064 108.737 38.2696C110.765 39.1068 113.118 39.9641 115.794 40.8413C116.203 41.0796 116.546 41.4167 116.791 41.8219C117.035 42.2271 117.175 42.6872 117.195 43.1602C117.195 44.1918 116.889 44.9654 116.276 45.4812C115.859 46.0299 115.118 46.3034 114.054 46.302C112.731 46.302 110.99 45.8998 108.833 45.0954C104.249 43.3746 99.9718 40.9257 96.1671 37.8431C94.2281 36.3082 92.5753 34.4429 91.2851 32.3331H85.0486V37.8431C87.6589 37.5859 90.2371 37.2959 92.7831 36.973C93.1792 36.9725 93.5706 37.0587 93.9297 37.2257C94.2889 37.3927 94.6071 37.6364 94.8619 37.9396C95.2791 38.4568 95.4885 39.1819 95.4899 40.1148C95.4899 41.0164 95.2484 41.7257 94.7655 42.2429C94.3455 42.693 93.6368 42.9988 92.6395 43.1602C85.3529 44.1918 79.6808 44.7075 75.6231 44.7075C74.5602 44.7075 73.8029 44.4496 73.3514 43.9339C72.9314 43.4524 72.7056 42.6951 72.6742 41.6622C72.6742 40.5992 72.9478 39.8262 73.495 39.3433C73.8179 38.9547 74.4608 38.7447 75.4238 38.7132C76.4539 38.6175 77.4691 38.5368 78.4692 38.4711V19.7552C78.4678 16.8234 80.0137 15.3575 83.1069 15.3575L83.1155 15.3596ZM85.0443 21.8854H105.01V20.1452C105.01 19.758 104.671 19.5644 103.994 19.5644H86.0601C85.3829 19.5644 85.0443 19.758 85.0443 20.1452V21.8854ZM85.0443 27.5411C85.0443 27.8969 85.3829 28.0726 86.0601 28.0726H103.994C104.671 28.0726 105.01 27.8969 105.01 27.5411V25.7495H85.0443V27.5411ZM89.8792 9.32457H99.4975C98.3059 8.55305 97.1137 7.76367 95.9207 6.95642C95.4392 6.63496 95.1013 6.47422 94.907 6.47422C94.3795 6.49278 93.8645 6.63992 93.4068 6.90285C92.148 7.80153 90.9708 8.60448 89.8749 9.31171L89.8792 9.32457ZM102.641 35.4707C104.648 34.5284 106.586 33.4463 108.441 32.2324C107.88 32.2974 107.315 32.3296 106.75 32.3289H98.5803C99.6256 33.3974 100.794 34.3384 102.061 35.1321C102.246 35.2527 102.438 35.3615 102.637 35.4578L102.641 35.4707Z" fill="#5D9B0D" stroke="#5D9B0D" stroke-width="0.458628" stroke-linecap="round" stroke-linejoin="round"/>
<path d="M149.553 17.2903H160.382C162.604 17.2903 163.715 18.3697 163.717 20.5286V30.5841C163.717 32.7101 162.653 33.8217 160.525 33.9188C161.24 34.8847 162.097 36.4156 163.097 38.5115C164.257 41.0833 164.837 42.8399 164.837 43.7815C164.837 44.4244 164.724 44.853 164.499 45.0373C164.199 45.4342 163.81 45.7548 163.363 45.973C162.916 46.1912 162.424 46.3009 161.927 46.2932C161.088 46.2932 160.508 45.9553 160.187 45.2795C159.77 44.1822 159.335 43.1028 158.882 42.0412C155.208 43.4571 150.81 44.343 145.686 44.6987C144.718 44.6987 143.993 44.4894 143.511 44.0708C143.091 43.6193 142.865 42.8778 142.834 41.8462C142.867 41.0404 143.093 40.4282 143.511 40.0096C143.865 39.5809 144.478 39.3666 145.348 39.3345H145.686V20.5286C145.686 18.3712 146.975 17.2918 149.553 17.2903ZM170.435 1.38192C171.317 1.37641 172.179 1.64692 172.9 2.15558C173.614 2.51134 173.971 3.23644 173.971 4.33086C173.852 5.1263 173.64 5.90518 173.341 6.65186H182.816C184.976 6.65186 186.298 7.11906 186.781 8.05346C187.362 8.76784 187.652 11.6196 187.651 16.6088C187.651 21.2822 187.508 24.892 187.222 27.438C186.867 29.4383 186.141 30.8241 185.047 31.5957C183.821 32.4658 182.13 32.9008 179.972 32.9008H178.568C178.058 32.9124 177.549 32.8303 177.068 32.6587C176.812 32.6905 176.553 32.7062 176.295 32.7058H171.027V38.893C171.027 39.4417 171.43 39.716 172.235 39.716H181.275C181.758 39.716 182.048 39.4259 182.145 38.8459C182.207 38.2015 182.255 37.2014 182.289 35.8455C182.316 35.5471 182.407 35.2582 182.558 34.999C182.708 34.7399 182.913 34.5167 183.159 34.3453C183.643 34.0595 184.304 33.9167 185.141 33.9167C186.171 33.9167 186.957 34.2389 187.499 34.8832C188.145 35.4633 188.467 36.6063 188.465 38.3122C188.373 40.0065 187.946 41.6657 187.209 43.1942C186.374 44.7516 185.313 45.5303 184.027 45.5303H170.444C167.253 45.5303 165.658 44.3051 165.658 41.8548V19.5663C165.658 18.4076 165.932 17.5696 166.479 17.0524C166.207 17.0858 165.933 17.1023 165.658 17.1017C164.944 17.1017 164.251 16.7445 163.579 16.0302C163.031 15.6101 162.741 14.9672 162.709 14.1014C162.518 14.1348 162.325 14.1513 162.131 14.1506C161.731 14.1687 161.332 14.1052 160.958 13.9641C160.583 13.823 160.242 13.6072 159.953 13.3298L159.857 13.2312V13.3834C159.857 14.1249 159.745 14.625 159.52 14.8836C159.197 15.3122 158.648 15.5115 157.877 15.5115H150.528C150.282 15.5265 150.035 15.4914 149.802 15.4086C149.57 15.3257 149.357 15.1967 149.175 15.0293C148.271 16.0295 147.449 16.5295 146.709 16.5295C145.484 16.5295 144.598 16.1909 144.051 15.5137C143.525 14.93 143.233 14.1733 143.228 13.3877C143.261 12.6462 143.632 12.0661 144.341 11.6475C146.498 9.07573 148.77 6.44969 151.156 3.76936C152.382 2.44777 153.607 1.78697 154.831 1.78697C155.894 1.78697 157.054 2.25417 158.312 3.18857C160.051 4.3485 161.575 5.80425 162.812 7.48982C163.747 8.61853 164.311 9.65009 164.505 10.5845C165.891 8.27655 167.051 5.84076 167.971 3.31073C168.261 2.02486 169.082 1.38192 170.435 1.38192ZM151.535 24.0047H157.868V22.6996C157.868 22.2824 157.626 22.0731 157.141 22.0716H152.259C151.778 22.0716 151.536 22.2809 151.535 22.6996V24.0047ZM151.535 29.0818H157.141C157.626 29.0818 157.868 28.8075 157.868 28.2588V26.9537H151.535V29.0818ZM156.893 37.7336C156.667 37.3478 156.458 36.9449 156.265 36.5248C156.056 36.1381 155.94 35.7082 155.926 35.269C155.926 34.656 156.087 34.1974 156.411 33.9145H151.529V38.7494C153.337 38.5195 155.131 38.1817 156.899 37.7379L156.893 37.7336ZM151.818 11.2917H158.151C157.538 10.4545 156.909 9.56865 156.265 8.63425C155.836 7.92487 155.363 7.56269 154.816 7.56269C154.332 7.56269 153.929 7.94988 153.607 8.72426C152.935 9.63437 152.34 10.4916 151.824 11.296L151.818 11.2917ZM168.35 16.0302C168.795 15.9305 169.249 15.8816 169.704 15.8844H176.097C178.418 15.8844 179.578 16.996 179.578 19.2191V27.1487C180.036 27.1706 180.486 27.0174 180.836 26.7201C181.19 26.4629 181.464 25.9314 181.657 25.1256C181.818 22.9996 181.899 19.0355 181.899 13.2334C181.899 12.559 181.496 12.2211 180.69 12.2197H170.684C170.049 13.4339 169.322 14.5975 168.509 15.7001C168.438 15.8566 168.382 15.9702 168.356 16.0345L168.35 16.0302ZM171.445 21.1544C171.153 21.1544 171.016 21.283 171.016 21.5401V27.5409H173.77C173.823 27.5484 173.876 27.5435 173.927 27.5267C173.977 27.5099 174.023 27.4815 174.061 27.4439C174.099 27.4063 174.127 27.3604 174.144 27.3099C174.161 27.2594 174.165 27.2057 174.158 27.153V21.5444C174.165 21.4918 174.161 21.4381 174.144 21.3877C174.127 21.3373 174.099 21.2915 174.061 21.254C174.023 21.2165 173.977 21.1884 173.927 21.1718C173.876 21.1553 173.823 21.1508 173.77 21.1587L171.445 21.1544Z" fill="#5D9B0D" stroke="#5D9B0D" stroke-width="0.458628" stroke-linecap="round" stroke-linejoin="round"/>
</svg>
